<svg width="33" height="32" viewBox="0 0 33 32" fill="none" xmlns="http://www.w3.org/2000/svg">
<path d="M5.83333 17.3333H9.83333V19.9999H5.83333V17.3333ZM12.5 19.9999H16.5V17.3333H12.5V19.9999ZM5.83333 25.3333H9.83333V22.6666H5.83333V25.3333ZM12.5 25.3333H16.5V22.6666H12.5V25.3333ZM5.83333 9.33327H9.83333V6.66661H5.83333V9.33327ZM12.5 9.33327H16.5V6.66661H12.5V9.33327ZM5.83333 14.6666H9.83333V11.9999H5.83333V14.6666ZM12.5 14.6666H16.5V11.9999H12.5V14.6666ZM32.5 10.6666V31.9999H0.5V3.99994C0.5 2.93907 0.921427 1.92166 1.67157 1.17151C2.42172 0.421366 3.43913 -6.10352e-05 4.5 -6.10352e-05L17.8333 -6.10352e-05C18.8942 -6.10352e-05 19.9116 0.421366 20.6618 1.17151C21.4119 1.92166 21.8333 2.93907 21.8333 3.99994V6.66661H28.5C29.5609 6.66661 30.5783 7.08803 31.3284 7.83818C32.0786 8.58832 32.5 9.60574 32.5 10.6666ZM19.1667 3.99994C19.1667 3.64632 19.0262 3.30718 18.7761 3.05713C18.5261 2.80708 18.187 2.66661 17.8333 2.66661H4.5C4.14638 2.66661 3.80724 2.80708 3.55719 3.05713C3.30714 3.30718 3.16667 3.64632 3.16667 3.99994V29.3333H19.1667V3.99994ZM29.8333 10.6666C29.8333 10.313 29.6929 9.97385 29.4428 9.7238C29.1928 9.47375 28.8536 9.33327 28.5 9.33327H21.8333V29.3333H29.8333V10.6666ZM24.5 19.9999H27.1667V17.3333H24.5V19.9999ZM24.5 25.3333H27.1667V22.6666H24.5V25.3333ZM24.5 14.6666H27.1667V11.9999H24.5V14.6666Z" fill="#4B5897"/>
</svg>
