<svg width="40" height="36" viewBox="0 0 40 36" fill="none" xmlns="http://www.w3.org/2000/svg">
<path d="M29.6211 10.255C29.5251 10.239 29.4131 10.239 29.3171 10.255C27.1094 10.175 25.3496 8.36725 25.3496 6.12752C25.3496 3.83979 27.1894 2 29.4771 2C31.7648 2 33.6046 3.85578 33.6046 6.12752C33.5886 8.36725 31.8288 10.175 29.6211 10.255Z" stroke="#00A7B0" stroke-width="3" stroke-linecap="round" stroke-linejoin="round"/>
<path d="M27.9738 21.9019C30.1655 22.2698 32.5812 21.8859 34.277 20.75C36.5328 19.2462 36.5328 16.7825 34.277 15.2786C32.5652 14.1428 30.1175 13.7588 27.9258 14.1428" stroke="#00A7B0" stroke-width="3" stroke-linecap="round" stroke-linejoin="round"/>
<path d="M10.3781 10.255C10.4741 10.239 10.586 10.239 10.682 10.255C12.8898 10.175 14.6496 8.36725 14.6496 6.12752C14.6496 3.83979 12.8098 2 10.522 2C8.23432 2 6.39453 3.85578 6.39453 6.12752C6.41053 8.36725 8.17032 10.175 10.3781 10.255Z" stroke="#00A7B0" stroke-width="3" stroke-linecap="round" stroke-linejoin="round"/>
<path d="M12.0244 21.9019C9.83261 22.2698 7.4169 21.8859 5.7211 20.75C3.46536 19.2462 3.46536 16.7825 5.7211 15.2786C7.4329 14.1428 9.8806 13.7588 12.0723 14.1428" stroke="#00A7B0" stroke-width="3" stroke-linecap="round" stroke-linejoin="round"/>
<path d="M20.0254 22.2057C19.9294 22.1897 19.8174 22.1897 19.7214 22.2057C17.5137 22.1257 15.7539 20.3179 15.7539 18.0782C15.7539 15.7905 17.5937 13.9507 19.8814 13.9507C22.1691 13.9507 24.0089 15.8065 24.0089 18.0782C23.9929 20.3179 22.2331 22.1417 20.0254 22.2057Z" stroke="#00A7B0" stroke-width="3" stroke-linecap="round" stroke-linejoin="round"/>
<path d="M15.3695 27.245C13.1138 28.7488 13.1138 31.2125 15.3695 32.7163C17.9292 34.4281 22.1207 34.4281 24.6804 32.7163C26.9362 31.2125 26.9362 28.7488 24.6804 27.245C22.1367 25.5492 17.9292 25.5492 15.3695 27.245Z" stroke="#00A7B0" stroke-width="3" stroke-linecap="round" stroke-linejoin="round"/>
</svg>
