<svg width="33" height="32" viewBox="0 0 33 32" fill="none" xmlns="http://www.w3.org/2000/svg">
<path d="M5.83333 17.3333H9.83333V20H5.83333V17.3333ZM12.5 20H16.5V17.3333H12.5V20ZM5.83333 25.3333H9.83333V22.6667H5.83333V25.3333ZM12.5 25.3333H16.5V22.6667H12.5V25.3333ZM5.83333 9.33333H9.83333V6.66667H5.83333V9.33333ZM12.5 9.33333H16.5V6.66667H12.5V9.33333ZM5.83333 14.6667H9.83333V12H5.83333V14.6667ZM12.5 14.6667H16.5V12H12.5V14.6667ZM32.5 10.6667V32H0.5V4C0.5 2.93913 0.921427 1.92172 1.67157 1.17157C2.42172 0.421427 3.43913 0 4.5 0L17.8333 0C18.8942 0 19.9116 0.421427 20.6618 1.17157C21.4119 1.92172 21.8333 2.93913 21.8333 4V6.66667H28.5C29.5609 6.66667 30.5783 7.08809 31.3284 7.83824C32.0786 8.58839 32.5 9.6058 32.5 10.6667ZM19.1667 4C19.1667 3.64638 19.0262 3.30724 18.7761 3.05719C18.5261 2.80714 18.187 2.66667 17.8333 2.66667H4.5C4.14638 2.66667 3.80724 2.80714 3.55719 3.05719C3.30714 3.30724 3.16667 3.64638 3.16667 4V29.3333H19.1667V4ZM29.8333 10.6667C29.8333 10.313 29.6929 9.97391 29.4428 9.72386C29.1928 9.47381 28.8536 9.33333 28.5 9.33333H21.8333V29.3333H29.8333V10.6667ZM24.5 20H27.1667V17.3333H24.5V20ZM24.5 25.3333H27.1667V22.6667H24.5V25.3333ZM24.5 14.6667H27.1667V12H24.5V14.6667Z" fill="#4B5897"/>
</svg>
